<svg xmlns="http://www.w3.org/2000/svg" viewBox="0 0 256 256">
  <defs>
    <linearGradient id="trebleRainbow" x1="128" y1="36" x2="128" y2="224" gradientUnits="userSpaceOnUse">
      <stop offset="0" stop-color="#ef4444"/>
      <stop offset="0.22" stop-color="#f97316"/>
      <stop offset="0.42" stop-color="#facc15"/>
      <stop offset="0.62" stop-color="#22c55e"/>
      <stop offset="0.85" stop-color="#3b82f6"/>
      <stop offset="1" stop-color="#a855f7"/>
    </linearGradient>
  </defs>
  <rect x="0" y="0" width="256" height="256" rx="56" ry="56" fill="#ffffff"/>
  <g stroke="url(#trebleRainbow)" stroke-width="11" stroke-linecap="round" stroke-linejoin="round" fill="none">
    <path d="M 152 34 C 172 36 184 54 176 70 C 170 82 158 86 148 78"/>
    <path d="M 152 34 L 152 206 C 152 224 134 234 118 228 C 104 224 102 212 112 206"/>
    <path d="M 152 86 C 196 96 212 142 196 178 C 180 214 132 230 94 214 C 60 200 48 160 66 128 C 84 98 128 98 144 126 C 158 152 144 178 122 174 C 108 172 100 158 114 148"/>
  </g>
  <circle cx="112" cy="226" r="10" fill="url(#trebleRainbow)"/>
</svg>
