<svg xmlns="http://www.w3.org/2000/svg" viewBox="0 0 256 256" fill="none">
  <defs>
    <linearGradient id="trebleRainbow" x1="128" y1="16" x2="128" y2="244" gradientUnits="userSpaceOnUse">
      <stop offset="0" stop-color="#ef4444"/>
      <stop offset="0.22" stop-color="#f97316"/>
      <stop offset="0.42" stop-color="#facc15"/>
      <stop offset="0.62" stop-color="#22c55e"/>
      <stop offset="0.85" stop-color="#3b82f6"/>
      <stop offset="1" stop-color="#a855f7"/>
    </linearGradient>
  </defs>
  <g stroke="url(#trebleRainbow)" stroke-width="12" stroke-linecap="round" stroke-linejoin="round">
    <path d="M 152 28 C 172 30 184 48 176 64 C 170 76 158 80 148 72"/>
    <path d="M 152 28 L 152 206 C 152 226 134 238 116 230 C 102 224 100 212 110 206"/>
    <path d="M 152 82 C 200 92 216 140 200 178 C 184 216 132 234 92 216 C 56 200 44 158 64 124 C 84 92 130 92 146 122 C 160 150 146 178 124 174 C 108 172 100 156 114 146"/>
  </g>
  <circle cx="110" cy="226" r="10" fill="url(#trebleRainbow)"/>
</svg>
